<svg xmlns="http://www.w3.org/2000/svg" width="25" height="20" viewBox="0 0 25 20" fill="none">
<g clip-path="url(#clip0_13_2436)">
<path d="M12.4999 16.5001C9.53702 16.5001 7.13859 14.6654 6.91788 12.3404L2.82023 9.80696C2.28156 10.3476 1.78585 10.9191 1.38585 11.5441C1.29649 11.6856 1.24994 11.8418 1.24994 12.0002C1.24994 12.1587 1.29649 12.3149 1.38585 12.4563C3.50421 15.7629 7.69796 18.0001 12.4999 18.0001C13.5511 18.0001 14.5652 17.8751 15.5425 17.6732L13.5155 16.4185C13.1808 16.4703 12.8408 16.4976 12.4999 16.5001ZM24.7585 18.3157L20.4402 15.6457C21.7519 14.7613 22.8308 13.677 23.614 12.456C23.7033 12.3146 23.7499 12.1584 23.7499 11.9999C23.7499 11.8415 23.7033 11.6852 23.614 11.5438C21.4956 8.23727 17.3019 6.00008 12.4999 6.00008C10.4888 6.00203 8.51031 6.40707 6.74523 7.17821L1.7757 4.10539C1.71089 4.06505 1.63679 4.03532 1.55762 4.0179C1.47844 4.00048 1.39576 3.99571 1.31428 4.00387C1.2328 4.01202 1.15413 4.03294 1.08277 4.06543C1.0114 4.09792 0.948736 4.14134 0.898353 4.19321L0.131556 4.98289C0.0298368 5.08758 -0.015743 5.2203 0.00484145 5.35186C0.0254259 5.48342 0.110489 5.60306 0.241322 5.68446L23.2241 19.8948C23.2889 19.9351 23.363 19.9648 23.4422 19.9823C23.5214 19.9997 23.6041 20.0045 23.6856 19.9963C23.767 19.9881 23.8457 19.9672 23.9171 19.9347C23.9884 19.9022 24.0511 19.8588 24.1015 19.807L24.8687 19.0173C24.9703 18.9125 25.0159 18.7798 24.9952 18.6482C24.9745 18.5167 24.8894 18.3971 24.7585 18.3157ZM17.5819 13.8782L16.0468 12.9288C16.1761 12.6299 16.2446 12.3164 16.2499 12.0001C16.2575 11.537 16.1293 11.079 15.8755 10.6628C15.6217 10.2466 15.2495 9.88382 14.7886 9.60359C14.3278 9.32336 13.7912 9.13349 13.2221 9.04925C12.6529 8.96501 12.0669 8.98873 11.5112 9.11852C11.7468 9.37386 11.8742 9.68273 11.8749 10.0001C11.8691 10.1057 11.8489 10.2105 11.8148 10.3126L8.93937 8.53477C9.93819 7.86702 11.1982 7.50085 12.4999 7.50008C13.2387 7.49975 13.9704 7.61592 14.653 7.84195C15.3356 8.06798 15.9559 8.39944 16.4783 8.81737C17.0007 9.2353 17.415 9.7315 17.6976 10.2776C17.9801 10.8237 18.1253 11.409 18.1249 12.0001C18.1249 12.676 17.9183 13.306 17.5819 13.8785V13.8782Z" fill="#722080" fill-opacity="0.7"/>
</g>
<defs>
<clipPath id="clip0_13_2436">
<rect width="25" height="20" rx="10" fill="white"/>
</clipPath>
</defs>
</svg>
